 <!DOCTYPE svg PUBLIC "-//W3C//DTD SVG 1.1//EN" "http://www.w3.org/Graphics/SVG/1.1/DTD/svg11.dtd">
<svg id="a68dee58-3250-4186-b29e-89a186553882" data-name="Layer 1" xmlns="http://www.w3.org/2000/svg" width="865.76" height="682.89" viewBox="0 0 865.76 682.89">
<defs>
<style xmlns="http://www.w3.org/1999/xhtml">*, ::after, ::before { box-sizing: border-box; }
img, svg { vertical-align: middle; }
</style>
<style xmlns="http://www.w3.org/1999/xhtml">*, body, html { -webkit-font-smoothing: antialiased; }
img, svg { max-width: 100%; }
</style>
</defs>
<path d="M794.66,14s-36.4,578.16-42.48,637.87H719.82L763.31,14Z" fill="#bcbec0"/>
<path d="M331.74,14H778.11L728.21,651.9H237.34S326.34,68,331.74,14Z" fill="#d1d3d4"/>
<path d="M765.9,42.35H341.18c-.65,22.14-9.16,79.17-17.79,132.24h0L283,388.14c-28.18,112.76-67.25,220.6-67.25,220.6H241.3l-4,20.93H693.52S764.45,204,765.9,42.35Z" fill="#fff"/>
<polygon points="749.42 118.44 344.58 118.44 351.93 55.1 703.52 55.14 754.04 55.14 749.42 118.44" fill="#d1d3d4"/>
<polygon points="699.59 136.84 344.85 136.83 344.58 150.65 699.59 150.65 699.59 136.84" fill="#e1e1e1"/>
<polygon points="573.82 166.21 344.75 166.2 344.58 180.02 573.82 180.02 573.82 166.21" fill="#e1e1e1"/>
<polygon points="531.39 195.58 344.72 195.57 344.58 209.39 531.39 209.39 531.39 195.58" fill="#e1e1e1"/>
<polygon points="699.59 254.57 344.85 254.57 344.58 268.39 699.59 268.39 699.59 254.57" fill="#e1e1e1"/>
<polygon points="573.82 283.94 344.75 283.94 344.58 297.76 573.82 297.76 573.82 283.94" fill="#e1e1e1"/>
<polygon points="531.39 313.31 344.72 313.31 344.58 327.13 531.39 327.13 531.39 313.31" fill="#e1e1e1"/>
<path d="M584.64,317.32l-18.21,81.93s-5,22.25,18.21,21.24h81.93s19.21-3,23.26-21.24L708,326.43s2-19.22-18.21-23.27H610.94S600.82,300.13,584.64,317.32Z" fill="#d1d3d4"/>
<path d="M624.09,361.74l-19.26-25.61a7.26,7.26,0,0,0-10.92-.77h0a7.27,7.27,0,0,0-1.35,8.39l20.93,41.5a11.35,11.35,0,0,0,17.56,3.48l93.87-81.13A8.14,8.14,0,0,0,726.41,297h0a8.13,8.13,0,0,0-12.29-1.56L637,365.87S632.18,372.5,624.09,361.74Z" fill="#e1e1e1"/>
<rect x="304.85" y="433.94" width="131.49" height="6.28" fill="#e1e1e1"/>
<rect x="304.85" y="452.01" width="168.91" height="6.28" fill="#e1e1e1"/>
<rect x="304.85" y="470.09" width="168.91" height="6.28" fill="#e1e1e1"/>
<rect x="291.7" y="498.9" width="131.49" height="6.28" fill="#e1e1e1"/>
<rect x="291.7" y="516.97" width="168.91" height="6.28" fill="#e1e1e1"/>
<rect x="291.7" y="535.05" width="168.91" height="6.28" fill="#e1e1e1"/>
<path d="M207,106.09c-1.75-7.68-20.94-15-37.38-3.72A40.11,40.11,0,0,0,154,148.57c8.84,26.13-37.25,25.16-47.91,69.22-8.43,34.8-.61,83.9,46.4,81.23,71.76-4.08,65.56-74.22,68.71-111.07S263.53,109.82,207,106.09Z" fill="#2f2e41" data-secondary="true"/>
<path d="M230.66,204.5c.3,5.33.93,10.22,1.63,15.29s1.65,10,2.74,15,2.29,9.93,3.86,14.83a132.87,132.87,0,0,0,5.32,14.58l1.62,3.58c.22.54.66,1.34,1,2s.76,1.3,1.15,2a55,55,0,0,0,5,6.67,115.13,115.13,0,0,0,11,11,204.81,204.81,0,0,0,24,18.2l4.88-6.31c-3.44-3.33-6.94-6.77-10.33-10.2s-6.73-6.92-9.9-10.46a135.14,135.14,0,0,1-8.87-10.77,51.66,51.66,0,0,1-3.43-5.4c-.2-.43-.45-.87-.63-1.28s-.33-.72-.55-1.32l-1.23-3.22a181.17,181.17,0,0,1-7.26-27.1c-.94-4.65-1.6-9.36-2.3-14.06s-1.22-9.53-1.63-14Z" fill="#f9b499"/>
<path d="M241.62,185.31c6.49,1.65,11,28.36,11,28.36l-24.82,16.89s-10.21-31.67-5.22-38.81C227.81,184.32,232.15,182.9,241.62,185.31Z" fill="#0071f2" data-primary="true"/>
<path d="M289.9,299l16.72,2.67-9.53,10.56s-9.86-2.25-11.59-8.56Z" fill="#f9b499"/>
<polygon points="314.53 303.78 304.99 314.11 297.09 312.25 306.62 301.69 314.53 303.78" fill="#f9b499"/>
<polygon points="206.5 634.93 222.25 634.93 223.3 598.46 207.55 598.46 206.5 634.93" fill="#f9b499"/>
<polygon points="97.58 588.51 112.16 594.47 130.64 562.61 116.06 556.66 97.58 588.51" fill="#f9b499"/>
<path d="M114.91,592.28l-15.21-9a1.25,1.25,0,0,0-1.63.28l-8.89,11a2.53,2.53,0,0,0,.74,3.7c5.36,3.06,8.1,4.26,14.79,8.24,4.12,2.44,13.79,10.82,19.47,14.2s9.33-2.06,7.27-4a53.86,53.86,0,0,1-14.77-22.23A4.13,4.13,0,0,0,114.91,592.28Z" fill="#0071f2" data-primary="true"/>
<path d="M222.79,633.11H205.1a1.24,1.24,0,0,0-1.26,1.07l-2,14a2.53,2.53,0,0,0,2.53,2.8c6.17-.1,9.14-.47,16.92-.47,4.79,0,14.69.5,21.3.5s7-6.53,4.21-7.13c-12.34-2.65-17.2-6.31-21.36-9.81A4.16,4.16,0,0,0,222.79,633.11Z" fill="#0071f2" data-primary="true"/>
<path d="M241.62,185.31s7.51,2.64-7.52,95.06h-64c1.07-26,1.1-42.09-11.34-95.52A189.73,189.73,0,0,1,186,181.27c10.77-.52,19.59-.86,29.05,0C227.47,182.41,241.62,185.31,241.62,185.31Z" fill="#0071f2" data-primary="true"/>
<path d="M211.63,206.83s-8.31,5.13-10.49,12.74c-9-6.61-21.29-25-21.77-36a2.42,2.42,0,0,1,2.42-2.45,30.63,30.63,0,0,1,4.16.17Z" fill="#fafafa"/>
<path d="M211.63,206.83s8.31,5.13,10.49,12.74c9.7-7.1,4.32-30.56-1.24-38.37a27.77,27.77,0,0,0-5.88.07Z" fill="#fafafa"/>
<path d="M188.83,148.57c1.83,9.34,3.66,26.47-2.88,32.7,0,0,8.64,16.58,25.68,25.56,13-10.35,3.37-25.56,3.37-25.56-10.42-2.49-10.15-10.22-8.34-17.48Z" fill="#f9b499"/>
<path d="M234.1,280.37s12.42,121.32,11.39,169.36c-1.08,50-19.38,163.9-19.38,163.9h-21.3s3.37-111,1.49-160.09c-2.06-53.49-19.05-173.17-19.05-173.17Z" fill="#2f2e41" data-secondary="true"/>
<path d="M234.1,280.37s12.42,121.32,11.39,169.36c-1.08,50-19.38,163.9-19.38,163.9h-21.3s3.37-111,1.49-160.09c-2.06-53.49-19.05-173.17-19.05-173.17Z" fill="#2f2e41" opacity="0.4" data-secondary="true"/>
<path d="M217.2,280.37S202.71,406.5,191.77,447C178.78,495.07,126,577.1,126,577.1L106.12,569s34.08-93.4,44-118.73c21.2-54.06,3.06-134.62,20-169.89Z" fill="#2f2e41" data-secondary="true"/>
<path d="M217.2,280.37S202.71,406.5,191.77,447C178.78,495.07,126,577.1,126,577.1L106.12,569s34.08-93.4,44-118.73c21.2-54.06,3.06-134.62,20-169.89Z" fill="#2f2e41" opacity="0.4" data-secondary="true"/>
<path d="M242.5,129.15a107.45,107.45,0,1,0,151.69-9.25A107.45,107.45,0,0,0,242.5,129.15Zm12.73,11.27A90.45,90.45,0,1,1,263,268.1,90.46,90.46,0,0,1,255.23,140.42Z" fill="#2f2e41" data-secondary="true"/>
<path d="M242.5,129.15a107.45,107.45,0,1,0,151.69-9.25A107.45,107.45,0,0,0,242.5,129.15Zm12.73,11.27A90.45,90.45,0,1,1,263,268.1,90.46,90.46,0,0,1,255.23,140.42Z" opacity="0.2"/>
<path d="M328,283.09a82.88,82.88,0,1,0-87.79-77.68A82.88,82.88,0,0,0,328,283.09Z" fill="#e6e7e8"/>
<g opacity="0.5">
<path d="M317.93,117.63l1.55-.08,86.1,76.2c.05.52.08,1.05.12,1.57a82.62,82.62,0,0,1-13.63,50.8L269.15,137.33A82.48,82.48,0,0,1,317.93,117.63Z" fill="#fafafa"/>
<path d="M261.19,145.11,385.31,255a82.11,82.11,0,0,1-14,12.69L250.29,160.51A82.13,82.13,0,0,1,261.19,145.11Z" fill="#fafafa"/>
</g>
<path d="M243.63,279.31c-10.66,9.38-20.86,19.17-30.92,29.09s-19.9,20-29.62,30.23-19.27,20.58-28.73,31c-8.88,11-21,19.06-22.79,36.28a8.72,8.72,0,0,0,7.75,9.57,9.07,9.07,0,0,0,2.86-.18c16.87-3.89,23.44-16.88,33.24-27q13.83-16,27.3-32.29t26.41-33.08c8.62-11.18,17.1-22.5,25.11-34.22a7.14,7.14,0,0,0-10.61-9.39Z" fill="#2f2e41" data-secondary="true"/>
<path d="M243.63,279.31c-10.66,9.38-20.86,19.17-30.92,29.09s-19.9,20-29.62,30.23-19.27,20.58-28.73,31c-8.88,11-21,19.06-22.79,36.28a8.72,8.72,0,0,0,7.75,9.57,9.07,9.07,0,0,0,2.86-.18c16.87-3.89,23.44-16.88,33.24-27q13.83-16,27.3-32.29t26.41-33.08c8.62-11.18,17.1-22.5,25.11-34.22a7.14,7.14,0,0,0-10.61-9.39Z" opacity="0.2"/>
<path d="M172.16,148.54a11.43,11.43,0,0,0,7.29,4.8c3.94.72,5.55-2.89,4.15-6.42-1.25-3.17-4.82-7.38-8.63-6.51S170.11,145.46,172.16,148.54Z" fill="#f9b499"/>
<path d="M208.56,293.13l15.54-6.94-4.43,15.39s-9.86,2.24-14.15-2.7Z" fill="#f9b499"/>
<path d="M151.33,203.83c-.72,5.39-1.28,10.81-1.92,16.22l-1.65,16.25c-.58,5.41-1,10.84-1.53,16.26l-.68,8.14-.17,2c0,.2-.08,1.05-.1,1.63a16.23,16.23,0,0,0,2.24,8.49,27.42,27.42,0,0,0,7.33,8,55.23,55.23,0,0,0,7.82,4.94,109.13,109.13,0,0,0,15.91,6.68c5.35,1.8,10.72,3.33,16.11,4.69s10.78,2.47,16.36,3.33l1.77-7.78c-5-1.65-10.17-3.36-15.15-5.27s-10-3.8-14.77-6a115,115,0,0,1-13.67-7.13,45,45,0,0,1-5.73-4.15,14.28,14.28,0,0,1-3.45-4.13,2.49,2.49,0,0,1-.3-1.13s0-.1,0-.15,0,.07.07-.4l.29-2,1.17-8.09c.73-5.4,1.52-10.79,2.18-16.2l2.06-16.22c.59-5.41,1.27-10.82,1.79-16.24Z" fill="#f9b499"/>
<path d="M158.79,184.85c-6.41,2-14.11,24-14.11,24L167.11,232s11.5-23.74,8.81-32C173.12,191.31,166.1,182.63,158.79,184.85Z" fill="#0071f2" data-primary="true"/>
<polygon points="236.95 289.39 232.55 302.07 219.67 301.58 224.1 286.19 236.95 289.39" fill="#f9b499"/>
<path d="M238.42,281.64l14.14,12.52a5.2,5.2,0,0,0,7.34-.45h0a5.19,5.19,0,0,0-.45-7.33l-14.14-12.52a5.21,5.21,0,0,0-7.34.44h0A5.2,5.2,0,0,0,238.42,281.64Z" fill="#2f2e41" data-secondary="true"/>
<path d="M238.42,281.64l14.14,12.52a5.2,5.2,0,0,0,7.34-.45h0a5.19,5.19,0,0,0-.45-7.33l-14.14-12.52a5.21,5.21,0,0,0-7.34.44h0A5.2,5.2,0,0,0,238.42,281.64Z" fill="#fff" opacity="0.2"/>
<path d="M205.69,170.26a18.3,18.3,0,0,1,.39-3.77l-15.86-8.28S193.57,163.58,205.69,170.26Z" fill="#f4a48e"/>
<path d="M172.79,131.88c-4.07-13.88,8.5-27.85,24.42-25.59,16.15,2.3,22.88,22.75,22.42,36.14,0,0,4.9,33.87-19.52,21.87S172.79,131.88,172.79,131.88Z" fill="#f9b499"/>
<path d="M205.61,107.75c-.72,5.07-28.53,21.42-33.81,12.89s2.32-14.92,14.15-16.55S205.61,107.75,205.61,107.75Z" fill="#2f2e41" data-secondary="true"/>
<path d="M187.48,110.5c3.42,4.5-3.82,36.87-14.18,33.83s-9.89-13.41-2.69-23A27.79,27.79,0,0,1,187.48,110.5Z" fill="#2f2e41" data-secondary="true"/>
</svg>